<svg width="34" height="34" viewBox="0 0 34 34" fill="none" xmlns="http://www.w3.org/2000/svg">
<path d="M7.83277 9.49927C7.83277 9.94126 8.00835 10.3651 8.32088 10.6777C8.63341 10.9902 9.05729 11.1658 9.49927 11.1658C9.94126 11.1658 10.3651 10.9902 10.6777 10.6777C10.9902 10.3651 11.1658 9.94126 11.1658 9.49927C11.1658 9.05729 10.9902 8.63341 10.6777 8.32088C10.3651 8.00835 9.94126 7.83277 9.49927 7.83277C9.05729 7.83277 8.63341 8.00835 8.32088 8.32088C8.00835 8.63341 7.83277 9.05729 7.83277 9.49927Z" stroke="white" stroke-width="4" stroke-linecap="round" stroke-linejoin="round"/>
<path d="M2 6.99952V15.6187C2.00019 16.5026 2.35147 17.3502 2.97657 17.9751L15.8253 30.8239C16.5785 31.5769 17.6 32 18.6651 32C19.7301 32 20.7516 31.5769 21.5048 30.8239L30.8239 21.5048C31.5769 20.7516 32 19.7301 32 18.6651C32 17.6 31.5769 16.5785 30.8239 15.8253L17.9751 2.97657C17.3502 2.35147 16.5026 2.00019 15.6187 2H6.99952C5.67356 2 4.40192 2.52673 3.46432 3.46432C2.52673 4.40192 2 5.67356 2 6.99952Z" stroke="white" stroke-width="4" stroke-linecap="round" stroke-linejoin="round"/>
</svg>
