<svg width="42" height="34" viewBox="0 0 42 34" fill="none" xmlns="http://www.w3.org/2000/svg">
<path d="M2.25 12.8333H39.75M10.5833 23.25H10.6042M18.9167 23.25H23.0833M2.25 8.66667C2.25 7.00906 2.90848 5.41935 4.08058 4.24725C5.25269 3.07515 6.8424 2.41667 8.5 2.41667H33.5C35.1576 2.41667 36.7473 3.07515 37.9194 4.24725C39.0915 5.41935 39.75 7.00906 39.75 8.66667V25.3333C39.75 26.9909 39.0915 28.5806 37.9194 29.7528C36.7473 30.9249 35.1576 31.5833 33.5 31.5833H8.5C6.8424 31.5833 5.25269 30.9249 4.08058 29.7528C2.90848 28.5806 2.25 26.9909 2.25 25.3333V8.66667Z" stroke="#333333" stroke-width="4" stroke-linecap="round" stroke-linejoin="round"/>
</svg>
