<svg width="50" height="50" viewBox="0 0 50 50" fill="none" xmlns="http://www.w3.org/2000/svg">
<path d="M5.55555 2.77777H16.6667C17.4034 2.77777 18.1099 3.07043 18.6308 3.59136C19.1518 4.1123 19.4444 4.81884 19.4444 5.55555V22.2222C19.4444 22.9589 19.1518 23.6655 18.6308 24.1864C18.1099 24.7073 17.4034 25 16.6667 25H5.55555C4.81884 25 4.1123 24.7073 3.59136 24.1864C3.07043 23.6655 2.77777 22.9589 2.77777 22.2222V5.55555C2.77777 4.81884 3.07043 4.1123 3.59136 3.59136C4.1123 3.07043 4.81884 2.77777 5.55555 2.77777ZM5.55555 36.1111H16.6667C17.4034 36.1111 18.1099 36.4038 18.6308 36.9247C19.1518 37.4456 19.4444 38.1522 19.4444 38.8889V44.4444C19.4444 45.1811 19.1518 45.8877 18.6308 46.4086C18.1099 46.9296 17.4034 47.2222 16.6667 47.2222H5.55555C4.81884 47.2222 4.1123 46.9296 3.59136 46.4086C3.07043 45.8877 2.77777 45.1811 2.77777 44.4444V38.8889C2.77777 38.1522 3.07043 37.4456 3.59136 36.9247C4.1123 36.4038 4.81884 36.1111 5.55555 36.1111ZM33.3333 25H44.4444C45.1811 25 45.8877 25.2927 46.4086 25.8136C46.9296 26.3345 47.2222 27.0411 47.2222 27.7778V44.4444C47.2222 45.1811 46.9296 45.8877 46.4086 46.4086C45.8877 46.9296 45.1811 47.2222 44.4444 47.2222H33.3333C32.5966 47.2222 31.8901 46.9296 31.3691 46.4086C30.8482 45.8877 30.5555 45.1811 30.5555 44.4444V27.7778C30.5555 27.0411 30.8482 26.3345 31.3691 25.8136C31.8901 25.2927 32.5966 25 33.3333 25ZM33.3333 2.77777H44.4444C45.1811 2.77777 45.8877 3.07043 46.4086 3.59136C46.9296 4.1123 47.2222 4.81884 47.2222 5.55555V11.1111C47.2222 11.8478 46.9296 12.5544 46.4086 13.0753C45.8877 13.5962 45.1811 13.8889 44.4444 13.8889H33.3333C32.5966 13.8889 31.8901 13.5962 31.3691 13.0753C30.8482 12.5544 30.5555 11.8478 30.5555 11.1111V5.55555C30.5555 4.81884 30.8482 4.1123 31.3691 3.59136C31.8901 3.07043 32.5966 2.77777 33.3333 2.77777Z" stroke="white" stroke-width="4" stroke-linecap="round" stroke-linejoin="round"/>
</svg>
