<svg width="34" height="42" viewBox="0 0 34 42" fill="none" xmlns="http://www.w3.org/2000/svg">
<path d="M10.75 6.41667H6.58335C5.47829 6.41667 4.41848 6.85565 3.63708 7.63706C2.85567 8.41846 2.41669 9.47827 2.41669 10.5833V35.5833C2.41669 36.6884 2.85567 37.7482 3.63708 38.5296C4.41848 39.311 5.47829 39.75 6.58335 39.75H27.4167C28.5218 39.75 29.5816 39.311 30.363 38.5296C31.1444 37.7482 31.5834 36.6884 31.5834 35.5833V10.5833C31.5834 9.47827 31.1444 8.41846 30.363 7.63706C29.5816 6.85565 28.5218 6.41667 27.4167 6.41667H23.25M10.75 6.41667C10.75 5.3116 11.189 4.25179 11.9704 3.47039C12.7518 2.68899 13.8116 2.25 14.9167 2.25H19.0834C20.1884 2.25 21.2482 2.68899 22.0296 3.47039C22.811 4.25179 23.25 5.3116 23.25 6.41667M10.75 6.41667C10.75 7.52174 11.189 8.58154 11.9704 9.36295C12.7518 10.1443 13.8116 10.5833 14.9167 10.5833H19.0834C20.1884 10.5833 21.2482 10.1443 22.0296 9.36295C22.811 8.58154 23.25 7.52174 23.25 6.41667M21.1667 18.9167H15.9584C15.1296 18.9167 14.3347 19.2459 13.7486 19.832C13.1626 20.418 12.8334 21.2129 12.8334 22.0417C12.8334 22.8705 13.1626 23.6653 13.7486 24.2514C14.3347 24.8374 15.1296 25.1667 15.9584 25.1667H18.0417C18.8705 25.1667 19.6653 25.4959 20.2514 26.082C20.8374 26.668 21.1667 27.4629 21.1667 28.2917C21.1667 29.1205 20.8374 29.9153 20.2514 30.5014C19.6653 31.0874 18.8705 31.4167 18.0417 31.4167H12.8334M17 31.4167V33.5M17 16.8333V18.9167" stroke="white" stroke-width="4" stroke-linecap="round" stroke-linejoin="round"/>
</svg>
