<svg width="26" height="26" viewBox="0 0 26 26" fill="none" xmlns="http://www.w3.org/2000/svg">
<path d="M13.4595 0C11.0225 0.000432464 8.63132 0.639693 6.54104 1.84959C4.45075 3.05949 2.73978 4.79464 1.59062 6.86996C0.441467 8.94527 -0.102759 11.2829 0.0159957 13.6335C0.13475 15.9841 0.912031 18.2594 2.26493 20.2169C3.61782 22.1743 5.49558 23.7404 7.6979 24.748C9.90022 25.7557 12.3445 26.1671 14.77 25.9385C17.1955 25.7098 19.5112 24.8496 21.4701 23.4497C23.429 22.0497 24.9577 20.1625 25.893 17.9894C26.3521 16.9234 25.2522 15.8522 24.1457 16.2864C22.2491 17.0283 20.1433 17.1048 18.1943 16.5028C16.2454 15.9007 14.5766 14.6581 13.478 12.9909C12.3795 11.3238 11.9207 9.33761 12.1815 7.3777C12.4423 5.41779 13.4061 3.6081 14.9053 2.2633L15.009 2.1593C15.7508 1.3403 15.1611 0.0104 13.9886 0.0104H13.6305L13.5389 0.00259997L13.4595 0Z" fill="white"/>
</svg>
