<svg width="31" height="34" viewBox="0 0 31 34" fill="none" xmlns="http://www.w3.org/2000/svg">
<path d="M22 2V8.66667M8.66667 2V8.66667M2 15.3333H28.6667M13.6667 22H15.3333V27M2 8.66667C2 7.78261 2.35119 6.93477 2.97631 6.30964C3.60143 5.68452 4.44928 5.33333 5.33333 5.33333H25.3333C26.2174 5.33333 27.0652 5.68452 27.6904 6.30964C28.3155 6.93477 28.6667 7.78261 28.6667 8.66667V28.6667C28.6667 29.5507 28.3155 30.3986 27.6904 31.0237C27.0652 31.6488 26.2174 32 25.3333 32H5.33333C4.44928 32 3.60143 31.6488 2.97631 31.0237C2.35119 30.3986 2 29.5507 2 28.6667V8.66667Z" stroke="#333333" stroke-width="4" stroke-linecap="round" stroke-linejoin="round"/>
</svg>
