<svg width="38" height="38" viewBox="0 0 38 38" fill="none" xmlns="http://www.w3.org/2000/svg">
<path d="M6.49998 19C5.39491 19 4.3351 18.561 3.5537 17.7796C2.7723 16.9982 2.33331 15.9384 2.33331 14.8333C2.33331 13.7283 2.7723 12.6685 3.5537 11.8871C4.3351 11.1056 5.39491 10.6667 6.49998 10.6667M6.49998 19C7.60505 19 8.66486 18.561 9.44626 17.7796C10.2277 16.9982 10.6666 15.9384 10.6666 14.8333C10.6666 13.7283 10.2277 12.6685 9.44626 11.8871C8.66486 11.1056 7.60505 10.6667 6.49998 10.6667M6.49998 19V35.6667M6.49998 10.6667V2.33333M19 31.5C17.8949 31.5 16.8351 31.061 16.0537 30.2796C15.2723 29.4982 14.8333 28.4384 14.8333 27.3333C14.8333 26.2283 15.2723 25.1685 16.0537 24.3871C16.8351 23.6056 17.8949 23.1667 19 23.1667M19 31.5C20.105 31.5 21.1649 31.061 21.9463 30.2796C22.7277 29.4982 23.1666 28.4384 23.1666 27.3333C23.1666 26.2283 22.7277 25.1685 21.9463 24.3871C21.1649 23.6056 20.105 23.1667 19 23.1667M19 31.5V35.6667M19 23.1667V2.33333M31.5 12.75C30.3949 12.75 29.3351 12.311 28.5537 11.5296C27.7723 10.7482 27.3333 9.6884 27.3333 8.58333C27.3333 7.47826 27.7723 6.41845 28.5537 5.63705C29.3351 4.85565 30.3949 4.41666 31.5 4.41666M31.5 12.75C32.605 12.75 33.6649 12.311 34.4463 11.5296C35.2277 10.7482 35.6666 9.6884 35.6666 8.58333C35.6666 7.47826 35.2277 6.41845 34.4463 5.63705C33.6649 4.85565 32.605 4.41666 31.5 4.41666M31.5 12.75V35.6667M31.5 4.41666V2.33333" stroke="#333333" stroke-width="4" stroke-linecap="round" stroke-linejoin="round"/>
</svg>
