<svg width="38" height="38" viewBox="0 0 38 38" fill="none" xmlns="http://www.w3.org/2000/svg">
<path d="M6.49998 19C5.39491 19 4.3351 18.5611 3.5537 17.7797C2.7723 16.9982 2.33331 15.9384 2.33331 14.8334C2.33331 13.7283 2.7723 12.6685 3.5537 11.8871C4.3351 11.1057 5.39491 10.6667 6.49998 10.6667M6.49998 19C7.60505 19 8.66486 18.5611 9.44626 17.7797C10.2277 16.9982 10.6666 15.9384 10.6666 14.8334C10.6666 13.7283 10.2277 12.6685 9.44626 11.8871C8.66486 11.1057 7.60505 10.6667 6.49998 10.6667M6.49998 19V35.6667M6.49998 10.6667V2.33337M19 31.5C17.8949 31.5 16.8351 31.0611 16.0537 30.2796C15.2723 29.4982 14.8333 28.4384 14.8333 27.3334C14.8333 26.2283 15.2723 25.1685 16.0537 24.3871C16.8351 23.6057 17.8949 23.1667 19 23.1667M19 31.5C20.105 31.5 21.1649 31.0611 21.9463 30.2796C22.7277 29.4982 23.1666 28.4384 23.1666 27.3334C23.1666 26.2283 22.7277 25.1685 21.9463 24.3871C21.1649 23.6057 20.105 23.1667 19 23.1667M19 31.5V35.6667M19 23.1667V2.33337M31.5 12.75C30.3949 12.75 29.3351 12.3111 28.5537 11.5297C27.7723 10.7482 27.3333 9.68844 27.3333 8.58337C27.3333 7.47831 27.7723 6.4185 28.5537 5.6371C29.3351 4.85569 30.3949 4.41671 31.5 4.41671M31.5 12.75C32.605 12.75 33.6649 12.3111 34.4463 11.5297C35.2277 10.7482 35.6666 9.68844 35.6666 8.58337C35.6666 7.47831 35.2277 6.4185 34.4463 5.6371C33.6649 4.85569 32.605 4.41671 31.5 4.41671M31.5 12.75V35.6667M31.5 4.41671V2.33337" stroke="white" stroke-width="4" stroke-linecap="round" stroke-linejoin="round"/>
</svg>
