<svg width="30" height="30" viewBox="0 0 30 30" fill="none" xmlns="http://www.w3.org/2000/svg">
<path d="M15 25.5014C15.3674 25.5015 15.7221 25.6364 15.9967 25.8805C16.2713 26.1247 16.4467 26.4611 16.4897 26.826L16.5002 27.0015V28.5016C16.4997 28.8839 16.3533 29.2517 16.0908 29.5297C15.8284 29.8077 15.4696 29.975 15.0879 29.9974C14.7062 30.0198 14.3304 29.8956 14.0371 29.6502C13.7439 29.4048 13.5555 29.0568 13.5103 28.6771L13.4998 28.5016V27.0015C13.4998 26.6036 13.6579 26.2221 13.9392 25.9408C14.2206 25.6595 14.6021 25.5014 15 25.5014ZM24.4705 22.3662L24.6116 22.4907L25.6617 23.5408C25.9307 23.8108 26.0869 24.173 26.0986 24.5539C26.1102 24.9349 25.9764 25.306 25.7243 25.5918C25.4722 25.8777 25.1208 26.0569 24.7414 26.093C24.3619 26.1292 23.983 26.0196 23.6815 25.7864L23.5404 25.6619L22.4903 24.6119C22.2315 24.3535 22.0759 24.0094 22.053 23.6443C22.03 23.2793 22.1413 22.9184 22.3657 22.6296C22.5902 22.3408 22.9125 22.144 23.2719 22.0762C23.6314 22.0083 24.0032 22.0741 24.3175 22.2612L24.4705 22.3662ZM7.50967 22.4907C7.76796 22.7491 7.92313 23.0927 7.94605 23.4573C7.96898 23.8218 7.85809 24.1822 7.63418 24.4709L7.50967 24.6119L6.45955 25.6619C6.18959 25.931 5.82733 26.0872 5.44637 26.0988C5.0654 26.1104 4.69429 25.9766 4.40841 25.7246C4.12253 25.4725 3.94332 25.1211 3.90717 24.7417C3.87103 24.3623 3.98066 23.9833 4.21381 23.6818L4.33832 23.5408L5.38843 22.4907C5.66976 22.2095 6.05126 22.0515 6.44905 22.0515C6.84684 22.0515 7.22835 22.2095 7.50967 22.4907ZM2.99867 13.5007C3.38103 13.5012 3.7488 13.6476 4.02684 13.91C4.30487 14.1725 4.47219 14.5312 4.49459 14.9129C4.517 15.2946 4.39281 15.6704 4.1474 15.9636C3.90199 16.2568 3.55388 16.4453 3.17419 16.4904L2.99867 16.5009H1.4985C1.11614 16.5005 0.748373 16.3541 0.470338 16.0916C0.192303 15.8292 0.0249885 15.4704 0.00258034 15.0887C-0.0198278 14.7071 0.104362 14.3312 0.349774 14.038C0.595187 13.7448 0.943299 13.5564 1.32298 13.5112L1.4985 13.5007H2.99867ZM28.5015 13.5007C28.8839 13.5012 29.2516 13.6476 29.5297 13.91C29.8077 14.1725 29.975 14.5312 29.9974 14.9129C30.0198 15.2946 29.8956 15.6704 29.6502 15.9636C29.4048 16.2568 29.0567 16.4453 28.677 16.4904L28.5015 16.5009H27.0013C26.619 16.5005 26.2512 16.3541 25.9732 16.0916C25.6951 15.8292 25.5278 15.4704 25.5054 15.0887C25.483 14.7071 25.6072 14.3312 25.8526 14.038C26.098 13.7448 26.4461 13.5564 26.8258 13.5112L27.0013 13.5007H28.5015ZM6.31854 4.21523L6.45955 4.33974L7.50967 5.3898C7.77872 5.65975 7.93493 6.02199 7.94656 6.40293C7.95819 6.78388 7.82438 7.15497 7.5723 7.44083C7.32023 7.72669 6.96878 7.9059 6.58936 7.94204C6.20993 7.97818 5.83097 7.86855 5.52945 7.63542L5.38843 7.51092L4.33832 6.46086C4.08042 6.20236 3.92567 5.85869 3.90307 5.49425C3.88047 5.12982 3.99157 4.76966 4.21555 4.48128C4.43953 4.1929 4.761 3.99611 5.11971 3.9278C5.47841 3.8595 5.84972 3.92436 6.16402 4.11023L6.31854 4.21523ZM25.6617 4.33974C25.92 4.59804 26.0751 4.94171 26.0981 5.30627C26.121 5.67083 26.0101 6.03123 25.7862 6.31985L25.6617 6.46086L24.6116 7.51092C24.3416 7.77995 23.9793 7.93615 23.5984 7.94778C23.2174 7.95941 22.8463 7.82561 22.5604 7.57355C22.2745 7.32148 22.0953 6.97006 22.0592 6.59065C22.023 6.21125 22.1327 5.83231 22.3658 5.53081L22.4903 5.3898L23.5404 4.33974C23.8218 4.05852 24.2033 3.90054 24.6011 3.90054C24.9989 3.90054 25.3804 4.05852 25.6617 4.33974ZM15 0C15.3674 4.84685e-05 15.7221 0.134942 15.9967 0.379094C16.2713 0.623246 16.4467 0.959676 16.4897 1.32457L16.5002 1.50008V3.00017C16.4997 3.38251 16.3533 3.75026 16.0908 4.02828C15.8284 4.3063 15.4696 4.4736 15.0879 4.49601C14.7062 4.51841 14.3304 4.39423 14.0371 4.14883C13.7439 3.90343 13.5555 3.55534 13.5103 3.17568L13.4998 3.00017V1.50008C13.4998 1.10224 13.6579 0.720684 13.9392 0.439364C14.2206 0.158044 14.6021 0 15 0ZM15 7.50042C16.4697 7.50033 17.907 7.93197 19.1334 8.74173C20.3599 9.55149 21.3214 10.7037 21.8986 12.0552C22.4758 13.4067 22.6432 14.898 22.38 16.3439C22.1169 17.7897 21.4347 19.1264 20.4183 20.1879C19.402 21.2494 18.0961 21.989 16.663 22.3147C15.2299 22.6404 13.7326 22.538 12.3572 22.0201C10.9818 21.5022 9.78885 20.5917 8.92651 19.4017C8.06418 18.2117 7.57045 16.7946 7.50667 15.3263L7.49917 15.0008L7.50667 14.6753C7.59056 12.7443 8.41668 10.9203 9.81276 9.58352C11.2088 8.24677 13.0671 7.50053 15 7.50042Z" fill="#333333"/>
</svg>
